HIERARCHY
ROOT Hips
{
 OFFSET 0.000000 0.000000 0.000000
 CHANNELS 6 Xposition Yposition Zposition Yrotation Xrotation Zrotation
 JOINT Chest
 {
  OFFSET 0.000000 11.395451 -0.039534
  CHANNELS 3 Yrotation Xrotation Zrotation
  JOINT Chest2
  {
   OFFSET 0.000000 9.398669 0.071813
   CHANNELS 3 Yrotation Xrotation Zrotation
   JOINT Chest3
   {
    OFFSET 0.000000 8.489801 0.000000
    CHANNELS 3 Yrotation Xrotation Zrotation
    JOINT Chest4
    {
     OFFSET 0.000000 8.489801 0.000000
     CHANNELS 3 Yrotation Xrotation Zrotation
     JOINT Neck
     {
      OFFSET 0.000000 12.404889 0.000000
      CHANNELS 3 Yrotation Xrotation Zrotation
      JOINT Head
      {
       OFFSET 0.000000 8.903270 0.092239
       CHANNELS 3 Yrotation Xrotation Zrotation
       End Site
       {
        OFFSET 0.000000 17.592497 0.007158
       }
      }
     }
     JOINT RightCollar
     {
      OFFSET -3.196775 6.966722 0.000000
      CHANNELS 3 Yrotation Xrotation Zrotation
      JOINT RightShoulder
      {
       OFFSET -15.955896 0.000000 0.000000
       CHANNELS 3 Yrotation Xrotation Zrotation
       JOINT RightElbow
       {
        OFFSET -24.792472 0.000000 0.000000
        CHANNELS 3 Yrotation Xrotation Zrotation
        JOINT RightWrist
        {
         OFFSET -20.900115 0.000000 0.025002
         CHANNELS 3 Yrotation Xrotation Zrotation
         End Site
         {
          OFFSET -16.056692 0.000000 0.000000
         }
        }
       }
      }
     }
     JOINT LeftCollar
     {
      OFFSET 3.196775 6.966722 0.000000
      CHANNELS 3 Yrotation Xrotation Zrotation
      JOINT LeftShoulder
      {
       OFFSET 15.955896 0.000000 0.000000
       CHANNELS 3 Yrotation Xrotation Zrotation
       JOINT LeftElbow
       {
        OFFSET 24.792472 0.000000 0.000000
        CHANNELS 3 Yrotation Xrotation Zrotation
        JOINT LeftWrist
        {
         OFFSET 20.900115 0.000000 0.025002
         CHANNELS 3 Yrotation Xrotation Zrotation
         End Site
         {
          OFFSET 16.056692 0.000000 0.000000
         }
        }
       }
      }
     }
    }
   }
  }
 }
 JOINT RightHip
 {
  OFFSET -9.568995 0.193718 0.019767
  CHANNELS 3 Yrotation Xrotation Zrotation
  JOINT RightKnee
  {
   OFFSET 0.000000 -56.649296 0.015402
   CHANNELS 3 Yrotation Xrotation Zrotation
   JOINT RightAnkle
   {
    OFFSET 0.000000 -41.365147 0.021264
    CHANNELS 3 Yrotation Xrotation Zrotation
    JOINT RightToe
    {
     OFFSET 0.000000 -7.465940 17.672538
     CHANNELS 3 Yrotation Xrotation Zrotation
     End Site
     {
      OFFSET 0.000000 -1.736315 7.837145
     }
    }
   }
  }
 }
 JOINT LeftHip
 {
  OFFSET 9.568995 0.193718 0.019767
  CHANNELS 3 Yrotation Xrotation Zrotation
  JOINT LeftKnee
  {
   OFFSET 0.000000 -56.649296 0.015402
   CHANNELS 3 Yrotation Xrotation Zrotation
   JOINT LeftAnkle
   {
    OFFSET 0.000000 -41.365147 0.021264
    CHANNELS 3 Yrotation Xrotation Zrotation
    JOINT LeftToe
    {
     OFFSET 0.000000 -7.465940 17.672538
     CHANNELS 3 Yrotation Xrotation Zrotation
     End Site
     {
      OFFSET 0.000000 -1.736315 7.837145
     }
    }
   }
  }
 }
}
MOTION
Frames: 10
Frame Time: 0.016667
-65.596677 106.674151 158.685303 -125.836510 -5.574588 -0.053537 -1.262153 5.640721 -1.281565 -0.544661 2.510453 -0.553514 -0.544661 2.510453 -0.553514 -0.406155 1.883337 -0.412831 2.707536 14.062682 -1.113421 5.540391 -9.964579 -3.162907 2.958454 5.159926 10.075375 8.963062 -8.079851 73.998237 6.850176 -1.324241 1.078402 -2.719055 2.152706 -0.568511 3.501504 5.314710 -7.194614 3.103424 -13.842012 -70.767035 -6.660164 -3.357501 -4.043544 4.655383 0.579746 -2.732016 -6.418627 9.397766 -2.248320 -1.585353 2.357391 -0.407291 -12.561880 -7.922833 0.363055 0.000000 0.000000 0.000000 -2.475176 6.747396 -1.714307 -0.833472 5.631186 -0.042833 3.847143 -7.059282 -0.179321 0.000000 0.000000 0.000000
-65.509609 106.672210 158.648315 -125.889476 -5.531493 -0.025851 -1.232735 5.602926 -1.264865 -0.531919 2.493530 -0.546568 -0.531919 2.493530 -0.546568 -0.396645 1.870627 -0.407690 2.705825 14.083665 -1.146952 5.549214 -9.923777 -3.224159 2.895308 5.176675 9.988707 8.960188 -8.012813 73.996904 6.768043 -1.330917 1.049541 -2.695644 2.167389 -0.552861 3.441545 5.324692 -7.209434 3.036520 -13.841509 -70.915746 -6.828276 -3.349237 -4.087308 4.628706 0.561232 -2.681825 -6.274361 9.296322 -2.179672 -1.812850 2.377407 -0.492330 -12.437762 -7.887708 0.386657 0.000000 -0.000000 0.000000 -2.414624 6.652910 -1.659081 -0.885660 5.671519 -0.117425 3.899774 -7.061132 -0.177198 0.000000 0.000000 0.000000
-65.422541 106.670269 158.611326 -125.942418 -5.488373 0.001793 -1.203302 5.565148 -1.248172 -0.519166 2.476617 -0.539622 -0.519166 2.476617 -0.539621 -0.387126 1.857925 -0.402548 2.704107 14.104664 -1.180475 5.558001 -9.882934 -3.285375 2.832178 5.193303 9.901983 8.957356 -7.945774 73.995527 6.685917 -1.337603 1.020673 -2.672220 2.182073 -0.537227 3.381579 5.334606 -7.224306 2.969704 -13.841353 -71.064514 -6.996447 -3.340726 -4.130863 4.602058 0.543024 -2.631499 -6.130177 9.194811 -2.111314 -2.040327 2.396935 -0.577641 -12.313657 -7.852577 0.410334 0.000000 0.000000 0.000000 -2.354094 6.558435 -1.603921 -0.937897 5.711736 -0.192092 3.952405 -7.062979 -0.175068 0.000000 -0.000000 -0.000000
-65.338465 106.669384 158.575857 -125.992537 -5.448630 0.026320 -1.175681 5.530507 -1.229574 -0.507228 2.461101 -0.531794 -0.507228 2.461101 -0.531794 -0.378220 1.846270 -0.396741 2.705336 14.124208 -1.212322 5.571736 -9.844718 -3.344658 2.771910 5.212043 9.817862 8.958262 -7.888995 73.989620 6.611913 -1.349236 0.990196 -2.648708 2.193291 -0.524788 3.323127 5.347328 -7.240606 2.904627 -13.839880 -71.209779 -7.167331 -3.318495 -4.181499 4.579153 0.526941 -2.588011 -6.002870 9.097956 -2.047453 -2.238502 2.429768 -0.650345 -12.205335 -7.828545 0.429501 0.000000 -0.000000 0.000000 -2.294198 6.470917 -1.551498 -0.986826 5.753284 -0.257852 4.001079 -7.065153 -0.176027 0.000000 0.000000 0.000000
-65.258570 106.670197 158.543425 -126.040801 -5.412348 0.046015 -1.149447 5.499846 -1.207550 -0.495932 2.447351 -0.522414 -0.495932 2.447351 -0.522414 -0.369800 1.835940 -0.389764 2.711318 14.141872 -1.242770 5.593950 -9.809796 -3.403255 2.715909 5.234552 9.737450 8.963604 -7.847428 73.975700 6.547852 -1.368107 0.956544 -2.624724 2.198746 -0.517126 3.266779 5.364812 -7.258689 2.839549 -13.837660 -71.351961 -7.342766 -3.277133 -4.242856 4.561910 0.513294 -2.554640 -5.902827 9.006101 -1.990546 -2.386780 2.484627 -0.702704 -12.122361 -7.821560 0.442198 0.000000 -0.000000 0.000000 -2.231263 6.392702 -1.502556 -1.033742 5.796863 -0.310690 4.044874 -7.068055 -0.181223 -0.000000 0.000000 0.000000
-65.181667 106.672066 158.512512 -126.086255 -5.379456 0.062607 -1.125033 5.472319 -1.183619 -0.485454 2.434996 -0.512153 -0.485454 2.434996 -0.512153 -0.361995 1.826656 -0.382122 2.720245 14.158094 -1.271538 5.621111 -9.777469 -3.459907 2.662728 5.259191 9.659654 8.972644 -7.816132 73.957286 6.491912 -1.391933 0.921315 -2.600666 2.200710 -0.512630 3.211927 5.385101 -7.278193 2.776132 -13.834092 -71.490604 -7.520903 -3.222150 -4.311436 4.548411 0.501612 -2.528156 -5.819633 8.918945 -1.937962 -2.505866 2.553105 -0.742392 -12.055151 -7.825660 0.450285 0.000000 0.000000 0.000000 -2.168964 6.321428 -1.456346 -1.077356 5.841829 -0.354596 4.084716 -7.071273 -0.189522 -0.000000 0.000000 -0.000000
-65.107184 106.674129 158.480085 -126.123219 -5.353130 0.078210 -1.105553 5.448505 -1.160418 -0.477145 2.424307 -0.502146 -0.477145 2.424307 -0.502146 -0.355813 1.818625 -0.374660 2.729653 14.172688 -1.296127 5.647616 -9.748371 -3.508967 2.610935 5.283247 9.583839 8.986927 -7.790527 73.940404 6.446747 -1.418789 0.887670 -2.577635 2.202573 -0.509680 3.158299 5.405201 -7.299408 2.721094 -13.825683 -71.620830 -7.698849 -3.156500 -4.383893 4.536621 0.492501 -2.505788 -5.738878 8.840239 -1.886243 -2.628455 2.623344 -0.779661 -11.990750 -7.834083 0.454876 0.000000 0.000000 0.000000 -2.118933 6.256975 -1.413279 -1.110440 5.887653 -0.392586 4.119426 -7.073920 -0.200603 -0.000000 -0.000000 0.000000
-65.034840 106.676111 158.444966 -126.148869 -5.335418 0.093552 -1.093082 5.429805 -1.138968 -0.471911 2.415915 -0.492819 -0.471911 2.415915 -0.492819 -0.351932 1.812319 -0.367693 2.740032 14.184360 -1.315227 5.673954 -9.724959 -3.548239 2.559408 5.305997 9.510031 9.011913 -7.771244 73.926623 6.412265 -1.452760 0.853858 -2.556350 2.205943 -0.508128 3.104285 5.424535 -7.322396 2.675669 -13.810586 -71.740483 -7.879333 -3.080418 -4.461789 4.526566 0.487528 -2.488033 -5.651098 8.771859 -1.833238 -2.772303 2.692863 -0.818317 -11.923572 -7.846218 0.455146 0.000000 0.000000 0.000000 -2.089805 6.199363 -1.374491 -1.125755 5.935940 -0.424482 4.148223 -7.076290 -0.214690 -0.000000 0.000000 -0.000000
-64.964916 106.678286 158.408333 -126.166038 -5.324281 0.107927 -1.085551 5.414809 -1.118244 -0.468850 2.409184 -0.483746 -0.468850 2.409184 -0.483746 -0.349678 1.807261 -0.360907 2.750895 14.194394 -1.330154 5.699655 -9.704805 -3.579939 2.509269 5.328167 9.438210 9.042141 -7.757651 73.914387 6.388557 -1.489752 0.821625 -2.536089 2.209215 -0.508122 3.051498 5.443682 -7.347091 2.638566 -13.790530 -71.851722 -8.059649 -2.993749 -4.543665 4.518222 0.485051 -2.474441 -5.565748 8.711906 -1.781081 -2.919658 2.764125 -0.854568 -11.859201 -7.862681 0.451915 0.000000 -0.000000 0.000000 -2.072935 6.148578 -1.338791 -1.130532 5.985139 -0.450420 4.171886 -7.078084 -0.231557 -0.000000 0.000000 -0.000000
-64.897682 106.680617 158.370686 -126.177538 -5.316769 0.121303 -1.079862 5.399880 -1.097818 -0.466602 2.402488 -0.474782 -0.466602 2.402488 -0.474782 -0.348033 1.802231 -0.354200 2.758305 14.206457 -1.342357 5.717679 -9.681247 -3.605042 2.462476 5.349234 9.367676 9.062793 -7.743282 73.905030 6.378547 -1.515556 0.799358 -2.515782 2.210970 -0.508499 3.004517 5.461403 -7.373598 2.612762 -13.767318 -71.956162 -8.228687 -2.898851 -4.621703 4.509480 0.480911 -2.460788 -5.496796 8.658471 -1.732769 -3.049923 2.832630 -0.887255 -11.801442 -7.878550 0.448794 0.000000 0.000000 0.000000 -2.054038 6.104453 -1.303099 -1.139238 6.029965 -0.473889 4.191580 -7.077528 -0.250202 0.000000 0.000000 0.000000
